<?xml version="1.0" standalone="no"?>
<!DOCTYPE svg PUBLIC "-//W3C//DTD SVG 20010904//EN"
 "http://www.w3.org/TR/2001/REC-SVG-20010904/DTD/svg10.dtd">
<svg version="1.0" xmlns="http://www.w3.org/2000/svg"
 width="400.000000pt" height="400.000000pt" viewBox="0 0 400.000000 400.000000"
 preserveAspectRatio="xMidYMid meet">
<metadata>
Created by potrace 1.11, written by Peter Selinger 2001-2013
</metadata>
<g transform="translate(0.000000,400.000000) scale(0.100000,-0.100000)"
fill="#000000" stroke="none">
<path d="M0 2000 l0 -2000 2000 0 2000 0 0 2000 0 2000 -2000 0 -2000 0 0
-2000z m1468 932 c150 -41 287 -124 371 -225 51 -60 128 -214 115 -227 -16
-16 -337 -150 -345 -144 -5 3 -9 11 -9 18 0 7 -16 45 -35 84 -75 149 -187 208
-378 200 -169 -8 -284 -66 -368 -188 -137 -198 -157 -580 -44 -827 60 -130
174 -224 306 -253 81 -18 230 -8 301 19 83 32 163 108 205 196 18 38 33 75 33
82 0 6 3 14 8 16 4 3 86 -19 182 -48 150 -45 175 -55 172 -71 -1 -11 -23 -59
-47 -109 -77 -156 -175 -255 -330 -330 -145 -70 -199 -80 -420 -79 -177 0
-196 2 -278 27 -307 94 -491 292 -579 624 -21 80 -23 108 -22 308 0 193 3 230
22 297 100 362 305 564 653 643 95 22 389 14 487 -13z m1244 -774 l3 -773 493
-3 492 -2 0 -155 0 -155 -690 0 -690 0 0 930 0 930 195 0 195 0 2 -772z"/>
</g>
</svg>
